<svg width="20" height="18" viewBox="0 0 20 18" fill="none" xmlns="http://www.w3.org/2000/svg">
<g id="cart">
<path id="Rectangle 33 (Stroke)" fill-rule="evenodd" clip-rule="evenodd" d="M3.90527 3.04307C4.04722 2.8583 4.267 2.75 4.50001 2.75H12.5C12.9142 2.75 13.25 3.08579 13.25 3.5C13.25 3.91421 12.9142 4.25 12.5 4.25H5.47622L7.07622 10.25H15.9238L17.5238 4.25H16.5C16.0858 4.25 15.75 3.91421 15.75 3.5C15.75 3.08579 16.0858 2.75 16.5 2.75H18.5C18.733 2.75 18.9528 2.8583 19.0947 3.04307C19.2367 3.22785 19.2847 3.4681 19.2247 3.69325L17.2247 11.1932C17.1371 11.5216 16.8398 11.75 16.5 11.75H6.50001C6.16022 11.75 5.86288 11.5216 5.77533 11.1932L3.77533 3.69325C3.71529 3.4681 3.76331 3.22785 3.90527 3.04307Z" fill="#0072FE"/>
<path id="Vector 67 (Stroke)" fill-rule="evenodd" clip-rule="evenodd" d="M0.75 1.5C0.75 1.08579 1.08579 0.75 1.5 0.75H4C4.34415 0.75 4.64414 0.984223 4.72761 1.3181L5.22761 3.3181C5.32807 3.71994 5.08375 4.12715 4.6819 4.22761C4.28006 4.32807 3.87285 4.08375 3.77239 3.6819L3.41442 2.25H1.5C1.08579 2.25 0.75 1.91421 0.75 1.5Z" fill="#0072FE"/>
<path id="Ellipse 22 (Stroke)" fill-rule="evenodd" clip-rule="evenodd" d="M7 14.25C6.58579 14.25 6.25 14.5858 6.25 15C6.25 15.4142 6.58579 15.75 7 15.75C7.41421 15.75 7.75 15.4142 7.75 15C7.75 14.5858 7.41421 14.25 7 14.25ZM4.75 15C4.75 13.7574 5.75736 12.75 7 12.75C8.24264 12.75 9.25 13.7574 9.25 15C9.25 16.2426 8.24264 17.25 7 17.25C5.75736 17.25 4.75 16.2426 4.75 15Z" fill="#0072FE"/>
<path id="Ellipse 22 (Stroke)_2" fill-rule="evenodd" clip-rule="evenodd" d="M16 14.25C15.5858 14.25 15.25 14.5858 15.25 15C15.25 15.4142 15.5858 15.75 16 15.75C16.4142 15.75 16.75 15.4142 16.75 15C16.75 14.5858 16.4142 14.25 16 14.25ZM13.75 15C13.75 13.7574 14.7574 12.75 16 12.75C17.2426 12.75 18.25 13.7574 18.25 15C18.25 16.2426 17.2426 17.25 16 17.25C14.7574 17.25 13.75 16.2426 13.75 15Z" fill="#0072FE"/>
</g>
</svg>
