<svg width="20" height="16" viewBox="0 0 20 16" fill="none" xmlns="http://www.w3.org/2000/svg">
<g id="credit card">
<path id="Rectangle 36 (Stroke)" fill-rule="evenodd" clip-rule="evenodd" d="M0.25 3.5C0.25 1.98122 1.48122 0.75 3 0.75H17C18.5188 0.75 19.75 1.98122 19.75 3.5V12.5C19.75 14.0188 18.5188 15.25 17 15.25H16C15.5858 15.25 15.25 14.9142 15.25 14.5C15.25 14.0858 15.5858 13.75 16 13.75H17C17.6904 13.75 18.25 13.1904 18.25 12.5V3.5C18.25 2.80964 17.6904 2.25 17 2.25H3C2.30964 2.25 1.75 2.80964 1.75 3.5V12.5C1.75 13.1904 2.30964 13.75 3 13.75H12C12.4142 13.75 12.75 14.0858 12.75 14.5C12.75 14.9142 12.4142 15.25 12 15.25H3C1.48122 15.25 0.25 14.0188 0.25 12.5V3.5Z" fill="#0072FE"/>
<path id="Vector 77 (Stroke)" fill-rule="evenodd" clip-rule="evenodd" d="M0.25 5.8335C0.25 5.41928 0.585786 5.0835 1 5.0835H19C19.4142 5.0835 19.75 5.41928 19.75 5.8335C19.75 6.24771 19.4142 6.5835 19 6.5835H1C0.585786 6.5835 0.25 6.24771 0.25 5.8335Z" fill="#0072FE"/>
<path id="Ellipse 27 (Stroke)" fill-rule="evenodd" clip-rule="evenodd" d="M5 9.25C4.58579 9.25 4.25 9.58579 4.25 10C4.25 10.4142 4.58579 10.75 5 10.75C5.41421 10.75 5.75 10.4142 5.75 10C5.75 9.58579 5.41421 9.25 5 9.25ZM2.75 10C2.75 8.75736 3.75736 7.75 5 7.75C6.24264 7.75 7.25 8.75736 7.25 10C7.25 11.2426 6.24264 12.25 5 12.25C3.75736 12.25 2.75 11.2426 2.75 10Z" fill="#0072FE"/>
<path id="Ellipse 27 (Stroke)_2" fill-rule="evenodd" clip-rule="evenodd" d="M8 9.25C7.58579 9.25 7.25 9.58579 7.25 10C7.25 10.4142 7.58579 10.75 8 10.75C8.41421 10.75 8.75 10.4142 8.75 10C8.75 9.58579 8.41421 9.25 8 9.25ZM5.75 10C5.75 8.75736 6.75736 7.75 8 7.75C9.24264 7.75 10.25 8.75736 10.25 10C10.25 11.2426 9.24264 12.25 8 12.25C6.75736 12.25 5.75 11.2426 5.75 10Z" fill="#0072FE"/>
</g>
</svg>
