<svg width="22" height="22" viewBox="0 0 22 22" fill="none" xmlns="http://www.w3.org/2000/svg">
<g id="donate">
<path id="Ellipse 19 (Stroke)" fill-rule="evenodd" clip-rule="evenodd" d="M11 1.75C11.9681 1.75 12.9001 1.89847 13.7753 2.17334C14.1704 2.29746 14.5914 2.07772 14.7155 1.68254C14.8397 1.28736 14.6199 0.866384 14.2247 0.742265C13.2058 0.42224 12.1223 0.25 11 0.25C5.06294 0.25 0.25 5.06294 0.25 11C0.25 16.9371 5.06294 21.75 11 21.75C16.9371 21.75 21.75 16.9371 21.75 11C21.75 7.99296 20.5144 5.27316 18.525 3.32299C18.2292 3.03302 17.7544 3.03774 17.4644 3.33353C17.1745 3.62932 17.1792 4.10417 17.475 4.39414C19.1884 6.07382 20.25 8.41225 20.25 11C20.25 16.1086 16.1086 20.25 11 20.25C5.89137 20.25 1.75 16.1086 1.75 11C1.75 5.89137 5.89137 1.75 11 1.75Z" fill="#0072FE"/>
<path id="Vector 78 (Stroke)" fill-rule="evenodd" clip-rule="evenodd" d="M8.02734 8.55566C8.02734 7.03688 9.25856 5.80566 10.7773 5.80566H11.2218C12.7406 5.80566 13.9718 7.03688 13.9718 8.55566V8.77789C13.9718 9.1921 13.636 9.52789 13.2218 9.52789C12.8076 9.52789 12.4718 9.1921 12.4718 8.77789V8.55566C12.4718 7.86531 11.9121 7.30566 11.2218 7.30566H10.7773C10.087 7.30566 9.52734 7.86531 9.52734 8.55566V8.65293C9.52734 9.1264 9.79485 9.55922 10.2183 9.77096L12.4516 10.8876C13.3833 11.3534 13.9718 12.3057 13.9718 13.3473V13.4446C13.9718 14.9633 12.7406 16.1946 11.2218 16.1946H10.7773C9.25856 16.1946 8.02734 14.9633 8.02734 13.4446V13.2223C8.02734 12.8081 8.36313 12.4723 8.77734 12.4723C9.19156 12.4723 9.52734 12.8081 9.52734 13.2223V13.4446C9.52734 14.1349 10.087 14.6946 10.7773 14.6946H11.2218C11.9121 14.6946 12.4718 14.1349 12.4718 13.4446V13.3473C12.4718 12.8738 12.2043 12.441 11.7808 12.2293L9.54751 11.1126C8.61585 10.6468 8.02734 9.69455 8.02734 8.65293V8.55566Z" fill="#0072FE"/>
<path id="Vector 79 (Stroke)" fill-rule="evenodd" clip-rule="evenodd" d="M11 3.5835C11.4142 3.5835 11.75 3.91928 11.75 4.3335V6.55572C11.75 6.96993 11.4142 7.30572 11 7.30572C10.5858 7.30572 10.25 6.96993 10.25 6.55572V4.3335C10.25 3.91928 10.5858 3.5835 11 3.5835Z" fill="#0072FE"/>
<path id="Vector 79 (Stroke)_2" fill-rule="evenodd" clip-rule="evenodd" d="M11 14.6943C11.4142 14.6943 11.75 15.0301 11.75 15.4443V17.6666C11.75 18.0808 11.4142 18.4166 11 18.4166C10.5858 18.4166 10.25 18.0808 10.25 17.6666V15.4443C10.25 15.0301 10.5858 14.6943 11 14.6943Z" fill="#0072FE"/>
</g>
</svg>
