<svg width="18" height="22" viewBox="0 0 18 22" fill="none" xmlns="http://www.w3.org/2000/svg">
<g id="e receipt 1">
<path id="Rectangle 55 (Stroke)" fill-rule="evenodd" clip-rule="evenodd" d="M0.25 3C0.25 1.48122 1.48122 0.25 3 0.25H15C16.5188 0.25 17.75 1.48122 17.75 3V6C17.75 6.41421 17.4142 6.75 17 6.75C16.5858 6.75 16.25 6.41421 16.25 6V3C16.25 2.30964 15.6904 1.75 15 1.75H3C2.30964 1.75 1.75 2.30964 1.75 3V19.8532L4.69939 18.5629C4.89103 18.479 5.10897 18.479 5.30061 18.5629L9 20.1814L12.6994 18.5629C12.891 18.479 13.109 18.479 13.3006 18.5629L16.25 19.8532V10C16.25 9.58579 16.5858 9.25 17 9.25C17.4142 9.25 17.75 9.58579 17.75 10V21C17.75 21.2531 17.6223 21.4891 17.4105 21.6277C17.1987 21.7662 16.9313 21.7886 16.6994 21.6871L13 20.0686L9.30061 21.6871C9.10897 21.771 8.89103 21.771 8.69939 21.6871L5 20.0686L1.30061 21.6871C1.06873 21.7886 0.801315 21.7662 0.589488 21.6277C0.377662 21.4891 0.25 21.2531 0.25 21V3Z" fill="#0072FE"/>
<path id="Vector 225 (Stroke)" fill-rule="evenodd" clip-rule="evenodd" d="M2.75 10C2.75 9.58579 3.08579 9.25 3.5 9.25H10C10.4142 9.25 10.75 9.58579 10.75 10C10.75 10.4142 10.4142 10.75 10 10.75H3.5C3.08579 10.75 2.75 10.4142 2.75 10Z" fill="#0072FE"/>
<path id="Vector 225 (Stroke)_2" fill-rule="evenodd" clip-rule="evenodd" d="M2.75 14C2.75 13.5858 3.08579 13.25 3.5 13.25H10C10.4142 13.25 10.75 13.5858 10.75 14C10.75 14.4142 10.4142 14.75 10 14.75H3.5C3.08579 14.75 2.75 14.4142 2.75 14Z" fill="#0072FE"/>
<path id="Vector 225 (Stroke)_3" fill-rule="evenodd" clip-rule="evenodd" d="M11.75 10C11.75 9.58579 12.0858 9.25 12.5 9.25H14.5C14.9142 9.25 15.25 9.58579 15.25 10C15.25 10.4142 14.9142 10.75 14.5 10.75H12.5C12.0858 10.75 11.75 10.4142 11.75 10Z" fill="#0072FE"/>
<path id="Vector 225 (Stroke)_4" fill-rule="evenodd" clip-rule="evenodd" d="M11.75 14C11.75 13.5858 12.0858 13.25 12.5 13.25H14.5C14.9142 13.25 15.25 13.5858 15.25 14C15.25 14.4142 14.9142 14.75 14.5 14.75H12.5C12.0858 14.75 11.75 14.4142 11.75 14Z" fill="#0072FE"/>
<path id="Vector 225 (Stroke)_5" fill-rule="evenodd" clip-rule="evenodd" d="M2.75 6C2.75 5.58579 3.08579 5.25 3.5 5.25H10C10.4142 5.25 10.75 5.58579 10.75 6C10.75 6.41421 10.4142 6.75 10 6.75H3.5C3.08579 6.75 2.75 6.41421 2.75 6Z" fill="#0072FE"/>
<path id="Vector 225 (Stroke)_6" fill-rule="evenodd" clip-rule="evenodd" d="M11.75 6C11.75 5.58579 12.0858 5.25 12.5 5.25H14.5C14.9142 5.25 15.25 5.58579 15.25 6C15.25 6.41421 14.9142 6.75 14.5 6.75H12.5C12.0858 6.75 11.75 6.41421 11.75 6Z" fill="#0072FE"/>
</g>
</svg>
