<svg width="22" height="22" viewBox="0 0 22 22" fill="none" xmlns="http://www.w3.org/2000/svg">
<g id="help">
<path id="Ellipse 19 (Stroke)" fill-rule="evenodd" clip-rule="evenodd" d="M11 20.25C10.0319 20.25 9.0999 20.1015 8.22474 19.8267C7.82956 19.7025 7.40858 19.9223 7.28446 20.3175C7.16034 20.7126 7.38008 21.1336 7.77526 21.2577C8.79419 21.5778 9.87769 21.75 11 21.75C16.9371 21.75 21.75 16.9371 21.75 11C21.75 5.06294 16.9371 0.25 11 0.25C5.06294 0.25 0.25 5.06294 0.25 11C0.25 14.007 1.48564 16.7268 3.47497 18.677C3.77076 18.967 4.24561 18.9623 4.53557 18.6665C4.82554 18.3707 4.82082 17.8958 4.52503 17.6059C2.81163 15.9262 1.75 13.5877 1.75 11C1.75 5.89137 5.89137 1.75 11 1.75C16.1086 1.75 20.25 5.89137 20.25 11C20.25 16.1086 16.1086 20.25 11 20.25Z" fill="#0072FE"/>
<path id="Vector 39 (Stroke)" fill-rule="evenodd" clip-rule="evenodd" d="M10.2227 5.63892C9.5323 5.63892 8.97266 6.19856 8.97266 6.88892V8.22225C8.97266 8.63646 8.63687 8.97225 8.22266 8.97225C7.80844 8.97225 7.47266 8.63646 7.47266 8.22225V6.88892C7.47266 5.37013 8.70387 4.13892 10.2227 4.13892H11.7782C13.297 4.13892 14.5282 5.37013 14.5282 6.88892V8.50493C14.5282 9.23428 14.2385 9.93375 13.7228 10.4495L12.1166 12.0557C11.8821 12.2901 11.7504 12.608 11.7504 12.9396V14.8889C11.7504 15.3031 11.4146 15.6389 11.0004 15.6389C10.5862 15.6389 10.2504 15.3031 10.2504 14.8889V12.9396C10.2504 12.2102 10.5402 11.5107 11.0559 10.995L12.6621 9.38882C12.8965 9.1544 13.0282 8.83645 13.0282 8.50493V6.88892C13.0282 6.19856 12.4686 5.63892 11.7782 5.63892H10.2227Z" fill="#0072FE"/>
<path id="Vector 40 (Stroke)" fill-rule="evenodd" clip-rule="evenodd" d="M11 16.2949C11.4142 16.2949 11.75 16.6307 11.75 17.0449V18.2222C11.75 18.6364 11.4142 18.9722 11 18.9722C10.5858 18.9722 10.25 18.6364 10.25 18.2222V17.0449C10.25 16.6307 10.5858 16.2949 11 16.2949Z" fill="#0072FE"/>
</g>
</svg>
