<svg width="22" height="22" viewBox="0 0 22 22" fill="none" xmlns="http://www.w3.org/2000/svg">
<g id="notification">
<path id="Rectangle 46 (Stroke)" fill-rule="evenodd" clip-rule="evenodd" d="M4.63954 7.60298C5.06963 5.36649 7.0266 3.75 9.30407 3.75H12.6959C14.9734 3.75 16.9304 5.36648 17.3605 7.60297L17.6019 8.85836C17.6801 9.26513 17.4138 9.65828 17.007 9.73651C16.6003 9.81473 16.2071 9.5484 16.1289 9.14164L15.8875 7.88625C15.5932 6.35601 14.2542 5.25 12.6959 5.25H9.30407C7.7458 5.25 6.40682 6.35602 6.11255 7.88625L4.40798 16.75H17.592L16.8981 13.1416C16.8199 12.7349 17.0862 12.3417 17.493 12.2635C17.8997 12.1853 18.2929 12.4516 18.3711 12.8584L19.2365 17.3584C19.2788 17.5781 19.2207 17.8051 19.0782 17.9776C18.9358 18.1501 18.7237 18.25 18.5 18.25H3.50001C3.27628 18.25 3.06424 18.1501 2.92176 17.9776C2.77929 17.8051 2.72125 17.5781 2.7635 17.3584L4.63954 7.60298Z" fill="#4598FE"/>
<path id="Vector 128 (Stroke)" fill-rule="evenodd" clip-rule="evenodd" d="M0.25 17.5C0.25 17.0858 0.585786 16.75 1 16.75H21C21.4142 16.75 21.75 17.0858 21.75 17.5C21.75 17.9142 21.4142 18.25 21 18.25H1C0.585786 18.25 0.25 17.9142 0.25 17.5Z" fill="#4598FE"/>
<path id="Rectangle 52 (Stroke)" fill-rule="evenodd" clip-rule="evenodd" d="M7.25 17.5C7.25 17.0858 7.58579 16.75 8 16.75H14C14.4142 16.75 14.75 17.0858 14.75 17.5V18.5C14.75 20.0188 13.5188 21.25 12 21.25H10C8.48122 21.25 7.25 20.0188 7.25 18.5V17.5ZM8.75 18.25V18.5C8.75 19.1904 9.30964 19.75 10 19.75H12C12.6904 19.75 13.25 19.1904 13.25 18.5V18.25H8.75Z" fill="#4598FE"/>
<path id="Rectangle 52 (Stroke)_2" fill-rule="evenodd" clip-rule="evenodd" d="M8.25 4.5C8.25 4.91421 8.58579 5.25 9 5.25H13C13.4142 5.25 13.75 4.91421 13.75 4.5V3.5C13.75 1.98122 12.5188 0.75 11 0.75C9.48122 0.75 8.25 1.98122 8.25 3.5V4.5ZM9.75 3.75V3.5C9.75 2.80964 10.3096 2.25 11 2.25C11.6904 2.25 12.25 2.80964 12.25 3.5V3.75H9.75Z" fill="#4598FE"/>
</g>
</svg>
