<svg width="56" height="56" viewBox="0 0 56 56" fill="none" xmlns="http://www.w3.org/2000/svg">
<g id="user">
<path id="Ellipse 328 (Stroke)" fill-rule="evenodd" clip-rule="evenodd" d="M28.0003 4.10419C21.2233 4.10419 15.7295 9.59803 15.7295 16.375C15.7295 23.152 21.2233 28.6459 28.0003 28.6459C34.7773 28.6459 40.2712 23.152 40.2712 16.375C40.2712 9.59803 34.7773 4.10419 28.0003 4.10419ZM11.8545 16.375C11.8545 7.45792 19.0832 0.229187 28.0003 0.229187C36.9174 0.229187 44.1462 7.45792 44.1462 16.375C44.1462 25.2921 36.9174 32.5209 28.0003 32.5209C19.0832 32.5209 11.8545 25.2921 11.8545 16.375Z" fill="url(#paint0_linear_2652_535)"/>
<path id="Ellipse 328 (Stroke)_2" fill-rule="evenodd" clip-rule="evenodd" d="M28.0003 32.5209C16.4646 32.5209 7.02325 39.7728 4.67439 49.1858C4.37115 50.4009 5.3762 51.8959 7.33359 51.8959H28.0003C29.0703 51.8959 29.9378 52.7633 29.9378 53.8334C29.9378 54.9034 29.0703 55.7709 28.0003 55.7709H7.33359C3.58404 55.7709 -0.163808 52.5695 0.914675 48.2476C3.74569 36.9024 14.9078 28.6459 28.0003 28.6459C41.0927 28.6459 52.2548 36.9024 55.0858 48.2476C56.1643 52.5695 52.4165 55.7709 48.6669 55.7709H40.9169C39.8469 55.7709 38.9794 54.9034 38.9794 53.8334C38.9794 52.7633 39.8469 51.8959 40.9169 51.8959H48.6669C50.6243 51.8959 51.6294 50.4009 51.3261 49.1858C48.9773 39.7728 39.5359 32.5209 28.0003 32.5209Z" fill="url(#paint1_linear_2652_535)"/>
</g>
<defs>
<linearGradient id="paint0_linear_2652_535" x1="-1.20957" y1="-58.876" x2="45.3079" y2="-56.9549" gradientUnits="userSpaceOnUse">
<stop stop-color="#0051B6"/>
<stop offset="1" stop-color="#0072FE"/>
</linearGradient>
<linearGradient id="paint1_linear_2652_535" x1="-21.3414" y1="-21.0025" x2="56.8312" y2="-14.5102" gradientUnits="userSpaceOnUse">
<stop stop-color="#0051B6"/>
<stop offset="1" stop-color="#0072FE"/>
</linearGradient>
</defs>
</svg>
