<svg width="22" height="22" viewBox="0 0 22 22" fill="none" xmlns="http://www.w3.org/2000/svg">
<g id="user check">
<path id="Ellipse 310 (Stroke)" fill-rule="evenodd" clip-rule="evenodd" d="M16 11.75C13.6528 11.75 11.75 13.6528 11.75 16C11.75 18.3472 13.6528 20.25 16 20.25C17.3898 20.25 18.6237 19.5837 19.4004 18.55C19.6492 18.2188 20.1193 18.1521 20.4505 18.4009C20.7817 18.6497 20.8484 19.1198 20.5996 19.451C19.5518 20.8456 17.8814 21.75 16 21.75C12.8244 21.75 10.25 19.1756 10.25 16C10.25 12.8244 12.8244 10.25 16 10.25C19.1756 10.25 21.75 12.8244 21.75 16C21.75 16.4142 21.4142 16.75 21 16.75C20.5858 16.75 20.25 16.4142 20.25 16C20.25 13.6528 18.3472 11.75 16 11.75Z" fill="white"/>
<path id="Vector 470 (Stroke)" fill-rule="evenodd" clip-rule="evenodd" d="M18.686 13.6398C19.023 13.8805 19.1011 14.3489 18.8603 14.686L16.3603 18.186C16.243 18.3503 16.0643 18.4604 15.8647 18.4912C15.6652 18.5221 15.4616 18.4712 15.3 18.3501L13.3 16.8501C12.9687 16.6015 12.9015 16.1314 13.15 15.8001C13.3986 15.4687 13.8687 15.4015 14.2 15.6501L15.5859 16.6895L17.6397 13.8141C17.8805 13.4771 18.3489 13.399 18.686 13.6398Z" fill="white"/>
<path id="Ellipse 328 (Stroke)" fill-rule="evenodd" clip-rule="evenodd" d="M9 1.75C6.92893 1.75 5.25 3.42893 5.25 5.5C5.25 7.57107 6.92893 9.25 9 9.25C11.0711 9.25 12.75 7.57107 12.75 5.5C12.75 3.42893 11.0711 1.75 9 1.75ZM3.75 5.5C3.75 2.60051 6.10051 0.25 9 0.25C11.8995 0.25 14.25 2.60051 14.25 5.5C14.25 8.3995 11.8995 10.75 9 10.75C6.10051 10.75 3.75 8.3995 3.75 5.5Z" fill="white"/>
<path id="Ellipse 328 (Stroke)_2" fill-rule="evenodd" clip-rule="evenodd" d="M9 10.75C4.99594 10.75 1.75 13.9959 1.75 18C1.75 18.4142 1.41421 18.75 1 18.75C0.585786 18.75 0.25 18.4142 0.25 18C0.25 13.1675 4.16751 9.25 9 9.25C9.41421 9.25 9.75 9.58579 9.75 10C9.75 10.4142 9.41421 10.75 9 10.75Z" fill="white"/>
</g>
</svg>
